<svg id="Capa_1" enable-background="new 0 0 511.981 511.981" height="512" viewBox="0 0 511.981 511.981" width="512" xmlns="http://www.w3.org/2000/svg"><g><g><path d="m61.917 198.23c.579 0 1.167-.05 1.757-.155 11.603-2.057 23.026-5.25 33.954-9.493 13.671-5.307 34.778-11.124 57.676-8.692 5.51.582 10.417-3.397 11-8.889s-3.397-10.417-8.889-11c-26.897-2.853-51.291 3.829-67.025 9.937-9.718 3.773-19.881 6.614-30.206 8.444-5.438.964-9.065 6.154-8.102 11.592.859 4.848 5.077 8.257 9.835 8.256z"/><path d="m61.917 260.905c.579 0 1.167-.05 1.757-.155 11.603-2.057 23.026-5.25 33.954-9.493 13.671-5.307 34.778-11.123 57.676-8.692 5.51.588 10.417-3.397 11-8.889s-3.397-10.417-8.889-11c-26.897-2.851-51.291 3.829-67.025 9.937-9.718 3.773-19.881 6.614-30.206 8.444-5.438.964-9.065 6.154-8.102 11.592.859 4.847 5.077 8.256 9.835 8.256z"/><path d="m61.917 323.579c.579 0 1.167-.05 1.757-.155 11.603-2.057 23.026-5.25 33.954-9.493 13.671-5.307 34.778-11.124 57.676-8.692 5.51.587 10.417-3.397 11-8.889s-3.397-10.417-8.889-11c-26.897-2.852-51.291 3.829-67.025 9.937-9.718 3.773-19.881 6.614-30.206 8.444-5.438.964-9.065 6.154-8.102 11.592.859 4.848 5.077 8.256 9.835 8.256z"/><path d="m263.008 178.897c22.909-2.434 44.007 3.385 57.677 8.692 10.928 4.242 22.352 7.436 33.954 9.493 5.357.949 10.642-2.745 11.592-8.101.964-5.438-2.663-10.628-8.102-11.592-10.325-1.83-20.488-4.671-30.206-8.444-15.733-6.108-40.137-12.787-67.024-9.937-5.492.583-9.473 5.507-8.89 11 .583 5.492 5.528 9.478 10.999 8.889z"/><path d="m94.011 126.589c1.204 0 2.428-.219 3.617-.681 13.671-5.307 34.778-11.122 57.676-8.692 5.503.584 10.418-3.396 11-8.889.583-5.492-3.397-10.417-8.889-11-26.897-2.852-51.291 3.829-67.025 9.937-5.148 1.999-7.702 7.792-5.703 12.941 1.537 3.959 5.318 6.384 9.324 6.384z"/><path d="m263.008 117.216c22.909-2.433 44.007 3.386 57.677 8.692 10.928 4.242 22.352 7.436 33.954 9.493 5.357.949 10.642-2.745 11.592-8.101.964-5.438-2.663-10.628-8.102-11.592-10.325-1.83-20.488-4.671-30.206-8.444-15.733-6.108-40.137-12.788-67.024-9.937-5.492.583-9.473 5.507-8.89 11s5.528 9.477 10.999 8.889z"/><path d="m263.008 240.578c22.909-2.432 44.007 3.385 57.677 8.692 10.928 4.242 22.352 7.436 33.954 9.493 5.357.949 10.642-2.745 11.592-8.101.964-5.438-2.663-10.628-8.102-11.592-10.325-1.83-20.488-4.671-30.206-8.444-15.733-6.107-40.137-12.789-67.024-9.937-5.492.583-9.473 5.507-8.89 11s5.528 9.478 10.999 8.889z"/><path d="m335.819 298.117c-2.646-.871-5.303-1.823-7.896-2.83-15.733-6.108-40.13-12.787-67.025-9.937-5.491.583-9.472 5.507-8.889 11 .583 5.491 5.494 9.476 11 8.889 22.902-2.433 44.006 3.385 57.676 8.692 3.592 1.395 8.084 3.687 12.011 3.687 4.2 0 8.112-2.669 9.497-6.877 1.726-5.246-1.128-10.898-6.374-12.624z"/><path d="m486.044 218.134c-16.692-10.132-38.045-10.373-54.969-.618-4.502 2.595-8.616 5.85-12.181 9.629v-163.294c0-5.523-4.478-10-10-10h-21.716c-20.195 0-39.933-3.689-58.668-10.966-25.307-9.815-73.519-21.182-119.065 8.773-45.556-29.962-93.755-18.588-119.055-8.767-18.743 7.276-38.482 10.965-58.671 10.965h-21.709c-5.522 0-10 4.477-10 10v315.691c-.001.065-.01.128-.01.193v46.261c0 5.523 4.478 10 10 10h141.583c11.428 0 22.806-2.832 32.9-8.187l24.881-13.188 23.16 12.71c10.336 5.668 22.022 8.664 33.796 8.664h71.226l1.61 6.581-12.979 22.007c-2.806 4.757-1.224 10.888 3.533 13.693 4.697 2.771 10.926 1.158 13.693-3.533l13.757-23.325 55.126-13.48c2.576-.63 4.797-2.258 6.173-4.525l19.504-32.13c2.866-4.721 1.362-10.872-3.358-13.737-4.723-2.866-10.872-1.362-13.737 3.359l-17.355 28.589-32.162 7.865 71.51-121.248c2.806-4.757 1.224-10.888-3.533-13.693-4.758-2.808-10.888-1.224-13.693 3.533l-71.925 121.949-8.223-33.626 83.556-137.647c9.591-15.803 30.793-21.009 46.622-11.401 15.998 9.711 21.112 30.626 11.402 46.624l-20.667 34.045c-2.866 4.721-1.362 10.872 3.358 13.737 4.723 2.866 10.872 1.362 13.737-3.359l20.668-34.046c15.434-25.424 7.305-58.665-18.119-74.098zm-164.772-156.604c21.05 8.176 43.224 12.322 65.905 12.322h11.716v183.906l-62.91 103.63c-24.388-8.429-48.08-15.362-74.31-12.581-14.647 1.498-28.976 5.881-42.225 12.851v-292.642c36.411-24.564 75.246-17.796 101.824-7.486zm-289.553 12.326c22.674 0 44.849-4.146 65.909-12.321 26.573-10.316 65.398-17.089 101.818 7.485v292.605c-32.368-17.083-70.447-16.559-104.444-4.56-15.371 5.43-30.37 10.163-46.69 11.835-9.416.964-18.854.84-28.303.84v-295.884zm143.394 336.289c-7.222 3.831-15.357 5.856-23.53 5.856h-131.583v-26.259h11.719c22.674 0 44.85-4.146 65.909-12.321 2.396-.93 4.897-1.828 7.482-2.68 24.161-7.953 56.067-11.603 86.945 5.632 2.473 1.38 4.939 2.891 7.395 4.548v12.327zm91.207 5.856c-8.422 0-16.783-2.144-24.177-6.198l-22.694-12.454v-12.417c13.397-8.982 28.624-14.58 44.328-16.237 21.61-2.058 41.599 2.953 61.732 10.205-.769 1.917-.926 4.099-.437 6.106l7.577 30.996h-66.329z"/><path d="m462.03 354.322c-2.065-5.038-8.03-7.494-13.051-5.41-5.033 2.089-7.504 8.019-5.41 13.06 2.091 5.036 8.023 7.483 13.061 5.4 5.023-2.077 7.492-8.03 5.4-13.05z"/></g></g></svg>