<svg id="Capa_1" enable-background="new 0 0 511.961 511.961" height="512" viewBox="0 0 511.961 511.961" width="512" xmlns="http://www.w3.org/2000/svg"><g fill="#a0e5a5"><path d="m494.355 168.601s15.83 37.03 1.83 67.06c-14.01 30.03-52.55 41.7-52.55 41.7-.428-1.59-15.529-37.211-1.97-66.75.04-.1.09-.21.14-.31 14-30.03 52.55-41.7 52.55-41.7z"/><path d="m501.645 308.571s-4.8 39.98-31.94 58.98c-27.15 19.01-66.36 9.84-66.36 9.84.337-.995 4.938-40.04 31.94-58.98 27.15-19.01 66.36-9.84 66.36-9.84z"/><path d="m428.625 90.301c13.287 28.482-.419 61.168-1.83 67.06 0 0-38.54-11.67-52.55-41.7-14-30.03 1.83-66.68 1.83-66.68s38.55 11.29 52.55 41.32z"/><path d="m351.995 402.981c33.14 0 60 30 60 30s-26.86 30-60 30-60-30-60-30c.454-.373 27.034-30 60-30z"/></g><path d="m376.825 198.711-59.95 59.06 13.8 83.03-74.71-38.79-74.71 38.79 13.8-83.03-59.95-59.06 83.23-12.54 37.63-75.27 37.63 75.27z" fill="#ffcd69"/><path d="m159.965 402.981c33.14 0 60 30 60 30s-26.86 30-60 30-60-30-60-30 26.86-30 60-30z" fill="#a0e5a5"/><path d="m135.855 48.981s15.83 36.65 1.83 66.68c-14.01 30.03-52.55 41.7-52.55 41.7-.025-.103-15.861-36.982-1.83-67.06 14-30.03 52.55-41.32 52.55-41.32z" fill="#a0e5a5"/><path d="m108.615 377.391s-39.21 9.17-66.36-9.84c-27.14-19-31.94-58.98-31.94-58.98s39.21-9.17 66.36 9.84c27.147 18.995 31.902 58.88 31.94 58.98z" fill="#a0e5a5"/><path d="m70.265 210.551c12.842 27.902.11 59.201-1.94 66.81 0 0-38.54-11.67-52.55-41.7-14-30.03 1.83-67.06 1.83-67.06s38.54 11.67 52.55 41.7c.04.08.08.17.11.25z" fill="#a0e5a5"/><path d="m20.503 159.03c-4.879-1.476-10.089.952-12.093 5.641-.718 1.68-17.406 41.525-1.698 75.218 13.684 29.333 46.716 42.845 56.189 46.201.956 5.342 2.141 10.632 3.558 15.861-27.425-10.134-56.939-3.462-58.422-3.116-4.963 1.161-8.259 5.868-7.651 10.93.218 1.813 5.683 44.662 36.133 65.979 26.715 18.705 71.023 15.163 78.24 9.529 4.986 4.991 10.247 9.694 15.775 14.091-22.081 9.401-37.149 25.976-38.019 26.947-3.4 3.798-3.4 9.544 0 13.342 1.218 1.36 30.269 33.329 67.45 33.329s66.232-31.969 67.45-33.329c.151-.168.286-.345.424-.521l26.736 3.753c.461.064.926.097 1.39.097s.929-.032 1.39-.097l26.763-3.757c.138.177.275.355.427.524 1.218 1.36 30.269 33.329 67.45 33.329 37.182 0 66.232-31.969 67.45-33.329 3.4-3.798 3.4-9.544 0-13.342-.87-.972-15.946-17.555-38.036-26.955 5.53-4.399 10.792-9.102 15.778-14.095 7.162 5.612 51.222 9.41 78.254-9.517 30.451-21.318 35.916-64.167 36.134-65.98.607-5.061-2.688-9.769-7.651-10.93-1.483-.346-31.017-7.022-58.455 3.13 1.418-5.229 2.605-10.521 3.562-15.864 9.435-3.339 42.52-16.849 56.219-46.213 15.707-33.69-.98-73.536-1.699-75.216-2.003-4.688-7.212-7.116-12.092-5.641-1.294.392-24.212 7.516-42.412 24.839-1.881-12.567-4.666-24.989-8.334-37.157 3.626-14.315 7.139-38.854-3.023-60.636-15.73-33.742-57.052-46.179-58.803-46.691-4.844-1.418-9.989.996-11.991 5.632-.719 1.664-17.43 41.159-1.712 74.872 15.718 33.691 56.966 46.514 58.715 47.044.538.163 1.079.267 1.62.337 3.193 13.633 5.212 27.538 6.029 41.54-9.478 22.977-4.811 48.106-.581 62.447-1.877 17.225-6.406 33.95-13.478 49.773-7.302 8.213-13.258 18.477-17.734 30.55-12.045 16.484-26.782 30.438-43.86 41.527-1.29-.077-2.588-.126-3.9-.126-33.202 0-55.976 24.181-59.515 24.776l-36.515 5.126-36.509-5.125c-3.358-.571-28.428-26.744-63.416-24.649-17.042-11.069-31.757-24.992-43.794-41.432-4.5-12.154-10.491-22.472-17.834-30.711-7.046-15.789-11.561-32.476-13.437-49.649 4.245-14.371 8.927-39.553-.591-62.569.816-13.965 2.836-27.849 6.029-41.479 6.231-.808 45.603-15.805 60.336-47.383 15.716-33.711-.994-73.206-1.713-74.87-2.001-4.637-7.146-7.051-11.991-5.632-1.751.513-43.073 12.949-58.802 46.689-10.163 21.785-6.649 46.323-3.024 60.638-3.667 12.172-6.452 24.585-8.333 37.131-18.196-17.303-41.09-24.419-42.383-24.811zm469.261 157.859c-3.022 11.766-10.196 31.551-25.794 42.472-15.613 10.933-36.675 10.896-48.756 9.713 4.124-16.101 12.257-32.963 25.807-42.471 15.607-10.929 36.66-10.898 48.743-9.714zm-1.54-135.143c3.265 11.702 6.945 32.429-1.101 49.688-8.056 17.269-26.312 27.772-37.368 32.787-3.01-10.816-7.02-31.968.999-49.438.033-.071.108-.242.115-.256 8.047-17.262 26.296-27.764 37.355-32.781zm-104.915-70.311c-8.047-17.262-4.361-37.831-1.103-49.404 11.038 4.898 29.31 15.235 37.357 32.498 8.159 17.488 4.204 38.635 1.121 49.684-.001.003-.002.007-.003.01-11.062-5.017-29.317-15.52-37.372-32.788zm-31.314 341.546c-19.054 0-36.285-12.104-45.506-20.009 9.375-8.047 26.495-19.991 45.506-19.991 19.051 0 36.279 12.099 45.498 19.999-9.224 7.906-26.451 20.001-45.498 20.001zm-192.03 0c-19.051 0-36.279-12.099-45.498-19.999 9.224-7.905 26.45-20.001 45.498-20.001s36.273 12.095 45.497 20c-9.223 7.906-26.449 20-45.497 20zm-135.126-221.546c-8.054-17.275-4.36-38.025-1.095-49.717 11.026 4.975 29.197 15.413 37.317 32.742.039.091.079.182.12.271 8.049 17.488 4.036 38.669 1.015 49.516-11.039-4.979-29.251-15.436-37.357-32.812zm23.151 127.924c-15.6-10.921-22.773-30.711-25.794-42.47 12.091-1.184 33.141-1.212 48.746 9.715 13.558 9.487 21.726 26.522 25.804 42.468-12.087 1.187-33.146 1.217-48.756-9.713zm44.379-264.832c8.048-17.265 26.324-27.602 37.355-32.497 3.261 11.58 6.946 32.145-1.101 49.403-8.057 17.269-26.312 27.771-37.374 32.789 0-.003-.001-.006-.002-.01-3.083-11.048-7.038-32.195 1.122-49.685z"/><path d="m265.965 222.981c0-5.522-4.477-10-10-10s-10 4.478-10 10v30c0 5.522 4.477 10 10 10s10-4.478 10-10z"/><circle cx="255.965" cy="302.981" r="10"/><path d="m386.335 195.621c-1.17-3.602-4.275-6.233-8.021-6.798l-78.097-11.767-35.307-70.626c-1.694-3.388-5.156-5.528-8.944-5.528s-7.25 2.141-8.944 5.528l-35.309 70.627-78.097 11.767c-3.745.564-6.85 3.196-8.021 6.798-1.171 3.603-.206 7.557 2.492 10.215l56.252 55.416-12.949 77.91c-.621 3.736.922 7.504 3.987 9.73 3.064 2.226 7.124 2.528 10.486.784l34.386-17.854c4.901-2.545 6.812-8.582 4.267-13.483-2.544-4.901-8.582-6.813-13.483-4.267l-16.634 8.637 10.521-63.298c.534-3.21-.528-6.479-2.847-8.764l-45.705-45.026 63.457-9.561c3.218-.485 6-2.506 7.455-5.417l28.686-57.379 28.686 57.379c1.455 2.911 4.236 4.932 7.455 5.417l63.457 9.561-45.705 45.026c-2.318 2.284-3.38 5.554-2.847 8.764l10.521 63.298-16.634-8.637c-4.902-2.546-10.939-.635-13.483 4.267-2.545 4.901-.635 10.938 4.267 13.483l34.386 17.854c3.394 1.763 7.452 1.419 10.486-.784 3.065-2.227 4.608-5.994 3.987-9.73l-12.949-77.91 56.252-55.416c2.696-2.659 3.661-6.613 2.49-10.216z"/></svg>