<svg height="512pt" viewBox="0 -51 512.00202 512" width="512pt" xmlns="http://www.w3.org/2000/svg"><path d="m149.980469 150.488281c-.945313 2.910157-.039063 6.101563 2.292969 8.082031l50.589843 43.003907-15.65625 64.527343c-.71875 2.972657.425781 6.085938 2.902344 7.882813s5.789063 1.925781 8.394531.320313l56.53125-34.828126 56.53125 34.828126c1.21875.75 2.589844 1.125 3.960938 1.125 1.5625 0 3.121094-.484376 4.4375-1.445313 2.476562-1.796875 3.621094-4.910156 2.898437-7.882813l-15.65625-64.527343 50.59375-43.003907c2.332031-1.980468 3.234375-5.171874 2.289063-8.082031-.945313-2.910156-3.554688-4.960937-6.605469-5.195312l-66.203125-5.050781-25.265625-61.402344c-1.164063-2.832032-3.921875-4.679688-6.980469-4.679688s-5.816406 1.847656-6.980468 4.679688l-25.265626 61.402344-66.203124 5.050781c-3.050782.234375-5.660157 2.285156-6.605469 5.195312zm78.597656 4.453125c2.84375-.21875 5.320313-2.019531 6.40625-4.65625l20.050781-48.738281 20.054688 48.738281c1.082031 2.636719 3.5625 4.4375 6.40625 4.65625l52.546875 4.007813-40.15625 34.132812c-2.171875 1.847657-3.121094 4.761719-2.449219 7.53125l12.425781 51.214844-44.867187-27.640625c-1.214844-.75-2.585938-1.125-3.960938-1.125s-2.746094.375-3.960937 1.125l-44.867188 27.640625 12.425781-51.214844c.671876-2.769531-.277343-5.683593-2.449218-7.53125l-40.15625-34.132812zm0 0"/><path d="m468.382812 218.070312c8.144532 0 18.351563-4.4375 28.070313-12.8125 13.878906-11.964843 15.46875-32.035156 15.527344-32.882812.300781-4.144531-2.808594-7.746094-6.949219-8.066406-.851562-.066406-20.933594-1.457032-34.8125 10.507812-1.671875 1.4375-3.25 2.941406-4.726562 4.484375-.53125-13.410156-2.382813-26.65625-5.492188-39.5625 3.3125-.328125 7.34375-1.78125 11.949219-5.464843 5.324219-4.257813 10.386719-10.765626 14.261719-18.324219 8.351562-16.3125 2.261718-35.5 2-36.3125-1.285157-3.949219-5.523438-6.117188-9.476563-4.851563-.8125.257813-19.941406 6.53125-28.296875 22.84375-1.050781 2.050782-1.96875 4.085938-2.765625 6.097656-5.488281-12.164062-12.191406-23.800781-20.027344-34.730468 8-4.234375 14.066407-16.199219 15.441407-31.921875 1.59375-18.257813-11.273438-33.742188-11.820313-34.390625-2.679687-3.175782-7.421875-3.589844-10.609375-.929688-.652344.546875-16.011719 13.566406-17.605469 31.820313-.566406 6.464843-.238281 12.441406.835938 17.625-5.167969-1.175781-11.015625-1.652344-17.027344-1.328125-18.300781.976562-31.828125 15.890625-32.394531 16.523437-2.769532 3.097657-2.515625 7.851563.566406 10.632813.609375.550781 14.632812 13.023437 32.050781 13.023437.636719 0 1.277344-.019531 1.925781-.050781 8.476563-.453125 16.484376-2.425781 22.542969-5.554688 2.375-1.222656 4.261719-2.53125 5.792969-3.859374 6.015625 8.722656 11.253906 17.917968 15.695312 27.464843-1.226562-.5-2.464843-.984375-3.738281-1.425781-17.320312-5.980469-35.464843 2.734375-36.230469 3.109375-3.730468 1.828125-5.285156 6.324219-3.476562 10.066406.371094.765625 9.265625 18.828125 26.585938 24.808594 6.644531 2.296875 13.378906 3.507813 19.355468 3.507813 1.242188 0 2.453125-.054688 3.621094-.160157 2.707031-.242187 4.980469-.753906 6.921875-1.425781 2.292969 10.324219 3.722656 20.875 4.246094 31.542969-.992188-.980469-2.007813-1.949219-3.078125-2.882813-13.789063-12.066406-33.882813-10.824218-34.734375-10.765625-4.144531.285157-7.277344 3.867188-7.011719 8.015625.054688.847656 1.492188 20.929688 15.285156 32.996094 6.390625 5.589844 13.5 9.765625 20.023438 11.753906 2.695312.820313 5.066406 1.199219 7.171875 1.292969-1.929688 11.554687-4.917969 22.8125-8.886719 33.644531-.988281-2.707031-2.148438-5.398437-3.457031-8.007812-9.171875-18.238282-30.480469-25.402344-31.386719-25.699219-3.949219-1.296875-8.195312.84375-9.511719 4.78125-.300781.902344-7.257812 22.28125 1.910157 40.519531 4.277343 8.5 9.882812 15.824219 15.792968 20.625 2.957032 2.402344 5.695313 3.949219 8.175782 4.898438-7.144532 11.085937-15.453126 21.421875-24.804688 30.808594.460938-3.660157.675781-7.480469.617188-11.371094-.328126-21.859375-17.542969-38.734375-18.273438-39.441406-2.988281-2.886719-7.746094-2.8125-10.648438.160156-.710937.730468-17.417968 18.105468-17.089843 39.964844.273437 18.351562 5.613281 30.777343 12.527343 36.976562-6.113281 3.851562-12.488281 7.378906-19.109374 10.550781-3.328126-8.371093-11.503907-14.304687-21.046876-14.304687h-63.957031c-4.171875 0-7.550781 3.378906-7.550781 7.546875s3.378906 7.546875 7.550781 7.546875h63.957031c4.160157 0 7.546876 3.386718 7.546876 7.550781v21.851563c0 4.164062-3.386719 7.546874-7.546876 7.546874h-135.503906c-4.164062 0-7.550781-3.382812-7.550781-7.546874v-21.851563c0-4.164063 3.386719-7.550781 7.550781-7.550781h41.351563c4.167969 0 7.546875-3.378906 7.546875-7.546875s-3.378906-7.546875-7.546875-7.546875h-41.351563c-9.246094 0-17.207031 5.566406-20.722656 13.523437-6.007812-2.949219-11.8125-6.195312-17.398438-9.714843 2.363282-2.140626 4.722657-5.238282 6.820313-9.71875 3.460937-7.390626 5.449219-17.089844 5.601563-27.3125.324218-21.859376-16.378907-39.238282-17.089844-39.964844-2.902344-2.976563-7.660156-3.046875-10.648438-.160156-.734375.707031-17.949218 17.582031-18.273437 39.4375-.058594 3.871093.152343 7.675781.609375 11.316406-9.335938-9.378906-17.625-19.695313-24.761719-30.765625 2.472656-.949219 5.195313-2.496094 8.140625-4.886719 5.90625-4.796875 11.515625-12.121094 15.789062-20.621094 9.171876-18.238281 2.210938-39.617187 1.910157-40.519531-1.3125-3.941406-5.5625-6.078125-9.511719-4.78125-.902344.292969-22.210938 7.460937-31.382812 25.699219-1.304688 2.59375-2.460938 5.269531-3.445313 7.964844-3.972656-10.839844-6.96875-22.101563-8.902344-33.65625 8.011719-.328126 17.847657-4.8125 27.199219-12.996094 13.789062-12.0625 15.230469-32.144532 15.285156-32.996094.265625-4.144531-2.867187-7.726562-7.011718-8.011719-.847657-.058593-20.945313-1.300781-34.734376 10.761719-1.070312.9375-2.089843 1.90625-3.082031 2.886719.523438-10.667969 1.953125-21.21875 4.246094-31.542969 1.941406.671875 4.214844 1.183594 6.921875 1.425781 1.171875.105469 2.378906.160157 3.621094.160157 5.976562 0 12.714844-1.210938 19.359375-3.507813 17.320312-5.984375 26.214843-24.042969 26.585937-24.808594 1.804688-3.742187.253906-8.238281-3.480468-10.066406-.761719-.375-18.910157-9.09375-36.230469-3.109375-1.277344.441406-2.519531.910156-3.726563 1.40625 4.4375-9.542969 9.671875-18.726562 15.683594-27.445312 1.53125 1.328124 3.417969 2.636718 5.792969 3.859374 6.058593 3.128907 14.066406 5.097657 22.542969 5.554688.648437.03125 1.289062.050781 1.925781.050781 17.417969 0 31.4375-12.472656 32.050781-13.023437 3.082031-2.785156 3.335938-7.535156.566406-10.632813-.566406-.632812-14.09375-15.546875-32.394531-16.523437-6.015625-.324219-11.859375.152344-17.027344 1.328125 1.074219-5.183594 1.402344-11.160157.835938-17.625-1.59375-18.253907-16.953125-31.273438-17.605469-31.820313-3.1875-2.660156-7.929688-2.246094-10.609375.929688-.546875.648437-13.414063 16.136718-11.820313 34.390625.742188 8.457031 2.980469 16.394531 6.3125 22.34375 2.910157 5.207031 6.136719 8.070312 9.109376 9.609375-7.828126 10.921875-14.523438 22.550781-20.011719 34.703125-.792969-2.011719-1.710938-4.050781-2.761719-6.101563-8.355469-16.3125-27.484375-22.585937-28.292969-22.84375-1.929687-.617187-4.027343-.433594-5.816406.511719-1.792969.941406-3.128906 2.566406-3.714844 4.507813-.195312.660156-1.941406 6.683593-2.121093 14.777343-.09375 4.167969 3.210937 7.621094 7.378906 7.714844 4.1875.109375 7.621094-3.210937 7.714844-7.382813.011718-.621093.039062-1.230468.074218-1.820312 4.078125 2.503906 8.699219 6.257812 11.339844 11.414062 5.324219 10.398438 5.375 18.199219 4.460938 20.40625-1.339844-.214843-5.859376-2.273437-11.007813-11.289062-2.066406-3.617188-6.675781-4.875-10.296875-2.808594s-4.878906 6.679688-2.8125 10.296875c4.039062 7.070313 8.84375 12.480469 13.894531 15.636719 3.160157 1.976562 6.433594 3.050781 9.582031 3.230469-3.074218 12.828125-4.910156 25.992187-5.433593 39.316406-1.480469-1.539063-3.054688-3.042969-4.726563-4.484375-13.878906-11.960938-33.964844-10.570312-34.816406-10.503906-4.140625.316406-7.246094 3.921875-6.9492188 8.066406.0625.847656 1.6484378 20.917969 15.5273438 32.878906 9.71875 8.375 19.925781 12.816406 28.070313 12.816406 1.761718 0 3.417968-.214843 4.960937-.636718 2.046875 13.714844 5.480469 27.0625 10.175781 39.867187-2.582031-1.214843-5.269531-2.300781-8.007812-3.222656-19.34375-6.523437-39.535156 3.363281-40.386719 3.789063-3.714844 1.851562-5.238281 6.363281-3.402344 10.089843.421875.851563 10.503907 20.945313 29.847657 27.46875 7.453124 2.511719 14.769531 3.769531 21.246093 3.769531 6.464844 0 12.09375-1.253906 16.191407-3.757812.800781-.492188 1.542968-1.03125 2.226562-1.613281 8.136719 13.222656 17.785156 25.507812 28.769531 36.582031-3.285156.011719-6.78125.230469-10.5.699219-21.6875 2.742187-36.550781 21.722656-37.175781 22.527343-2.539062 3.289063-1.941406 8.011719 1.335938 10.566407.734374.570312 16.796874 12.902343 36.128906 12.902343 1.800781 0 3.632812-.105468 5.480468-.339843 10.144532-1.28125 19.5625-4.332031 26.527344-8.585938 6.035156-3.691406 9.210938-7.605469 10.808594-11.113281 8.464844 5.566406 17.410156 10.539062 26.792969 14.851562v15.171876c0 12.488281 10.15625 22.644531 22.644531 22.644531h135.503906c12.488282 0 22.648438-10.15625 22.648438-22.644531v-14.289063c10.089844-4.511719 19.683594-9.78125 28.726562-15.71875 1.601563 3.503906 4.777344 7.414063 10.804688 11.097656 6.964844 4.253907 16.382812 7.304688 26.523437 8.585938 1.851563.234375 3.679688.34375 5.480469.34375 19.335938 0 35.398438-12.335938 36.132812-12.90625 3.273438-2.554688 3.871094-7.277344 1.335938-10.566407-.625-.804687-15.488281-19.78125-37.179688-22.523437-3.699218-.46875-7.179687-.6875-10.449218-.703125 10.980468-11.066406 20.625-23.335938 28.757812-36.550781.675782.570312 1.402344 1.101562 2.191406 1.582031 4.097657 2.507812 9.726563 3.757812 16.191407 3.757812 6.476562 0 13.792969-1.253906 21.246093-3.765624 19.34375-6.523438 29.425782-26.617188 29.847657-27.472657 1.832031-3.726562.3125-8.234375-3.402344-10.089843-.851563-.421876-21.039063-10.308594-40.386719-3.785157-2.722656.917969-5.394531 1.992188-7.964844 3.199219 4.679688-12.789062 8.097657-26.128906 10.140626-39.84375 1.542968.421875 3.195312.632812 4.953124.632812zm-4.503906-113.558593c2.679688-5.238281 7.398438-9.023438 11.511719-11.527344.378906 4.808594.0625 10.847656-2.617187 16.082031-5.042969 9.839844-10.976563 14.53125-13.535157 15.46875-.742187-2.625-.402343-10.183594 4.640625-20.023437zm-42.769531 25.832031c-5.558594-1.921875-9.96875-6.058594-13.023437-9.785156 4.703124-1.046875 10.730468-1.578125 16.289062.339844 10.449219 3.609374 15.925781 8.828124 17.210938 11.234374-2.496094 1.097657-10.027344 1.820313-20.476563-1.789062zm-10.96875 126.597656c-3.417969-6.792968-3.464844-14.664062-2.785156-20.484375 5.085937 2.933594 11.386719 7.679688 14.789062 14.449219 6.503907 12.933594 6.109375 22.367188 4.808594 24.515625-2.5-.234375-10.3125-5.546875-16.8125-18.480469zm-271.238281 29.773438c3.601562 5.46875 7.71875 13.664062 7.589844 22.429687-.242188 16.109375-5.863282 25.871094-8.3125 26.667969-2.421876-.867188-7.75-10.792969-7.511719-26.90625.132812-8.796875 4.476562-16.847656 8.234375-22.191406zm-49.046875-35.808594c3.414062-6.792969 9.703125-11.527344 14.78125-14.453125.679687 5.832031.628906 13.722656-2.773438 20.488281-6.503906 12.933594-14.3125 18.246094-16.8125 18.480469-1.304687-2.148437-1.699219-11.585937 4.804688-24.515625zm-2.226563-130.007812c5.5625-1.921876 11.585938-1.386719 16.289063-.339844-3.054688 3.726562-7.464844 7.863281-13.023438 9.785156-10.449219 3.609375-17.980469 2.886719-20.476562 1.789062 1.285156-2.40625 6.761719-7.625 17.210937-11.234374zm-21.265625 161.664062c-2.8125 1.71875-12.011719 2.851562-24.730469-1.441406-7.207031-2.425782-12.773437-7.988282-16.382812-12.605469 5.679688-1.492187 13.496094-2.550781 20.675781-.128906 13.675781 4.613281 20.03125 11.570312 20.648438 14.035156-.058594.039063-.125.085937-.210938.140625zm8.335938-96.007812c4.425781-3.871094 10.203125-5.648438 14.953125-6.449219-1.429688 4.605469-3.957032 10.105469-8.375 13.96875-8.320313 7.28125-15.535156 9.457031-18.292969 9.367187.28125-2.710937 3.390625-9.605468 11.714844-16.886718zm49.636719-121.605469c5.875.3125 11.257812 3.074219 15.21875 5.816406-4.234376 2.304687-9.910157 4.476563-15.75 4.160156-11.042969-.589843-17.746094-4.097656-19.640626-6.054687 2.09375-1.742188 9.125-4.515625 20.171876-3.921875zm-36.753907-45.066407c2.875 3.871094 5.820313 9.160157 6.332031 15.007813.964844 11.011719-1.570312 18.140625-3.242187 20.292969-2.019531-1.828125-5.75-8.410156-6.714844-19.421875-.511719-5.859375 1.46875-11.574219 3.625-15.878907zm-62.175781 173.9375c-4.453125-3.839843-7.023438-9.3125-8.484375-13.902343 4.761719.769531 10.5625 2.5 15.007813 6.332031 8.375 7.21875 11.535156 14.089844 11.839843 16.800781-2.722656.078125-9.988281-2.011719-18.363281-9.230469zm73.210938 167.964844c-8.726563 1.105469-17.308594-2.070312-23.125-5.039062 4.90625-4.332032 12.445312-9.558594 21.140624-10.65625 15.988282-2.023438 26.4375 2.175781 27.574219 4.488281-.523437 2.519531-9.601562 9.1875-25.589843 11.207031zm367.460937-93.398437c7.207031-2.429688 15.015625-1.375 20.683594.117187-3.609375 4.625-9.179688 10.1875-16.390625 12.617188-12.71875 4.292968-21.917969 3.160156-24.730469 1.441406-.085937-.050781-.152344-.097656-.210937-.140625.617187-2.464844 6.972656-9.425781 20.648437-14.035156zm13.996094-82.136719c4.457031-3.839844 10.25-5.570312 15.007812-6.339844-1.460937 4.59375-4.03125 10.070313-8.484375 13.910156-8.375 7.214844-15.628906 9.332032-18.363281 9.230469.304687-2.710937 3.464844-9.582031 11.839844-16.800781zm-61.984375-151.363281c.511718-5.859375 3.457031-11.144531 6.328125-15.011719 2.160156 4.308594 4.140625 10.023438 3.628906 15.882812-.964844 11.015626-4.695313 17.597657-6.714844 19.425782-1.671875-2.152344-4.207031-9.28125-3.242187-20.296875zm-29.890625 40.039062c-5.863281.316407-11.519531-1.859375-15.75-4.160156 3.964843-2.742187 9.34375-5.503906 15.214843-5.816406 11.035157-.59375 18.082032 2.179687 20.175782 3.921875-1.894532 1.957031-8.597656 5.464844-19.640625 6.054687zm42.527343 119.148438c-4.429687-3.871094-6.957031-9.367188-8.382812-13.96875 4.753906.800781 10.535156 2.574219 14.960938 6.449219 8.324218 7.277343 11.429687 14.175781 11.714843 16.886718-2.757812.101563-9.972656-2.085937-18.292969-9.367187zm-57.636718 92.628906c3.761718 5.34375 8.113281 13.398437 8.246094 22.203125.238281 16.113281-5.089844 26.039062-7.511719 26.90625-2.449219-.796875-8.070313-10.558594-8.3125-26.667969-.128907-8.808593 3.980469-16.992187 7.578125-22.441406zm42.28125 59.382813c8.734375 1.105468 16.261718 6.324218 21.15625 10.648437-5.816406 2.976563-14.40625 6.160156-23.144532 5.050781-15.984374-2.019531-25.0625-8.6875-25.585937-11.207031 1.132813-2.3125 11.582031-6.511719 27.574219-4.492187zm0 0"/></svg>